<?xml version="1.0" ?><svg data-name="Layer 1" id="Layer_1" viewBox="0 0 150 150" xmlns="http://www.w3.org/2000/svg"><defs><style>.cls-1{fill:#13818d;}.cls-2{fill:#fff;}.cls-3{fill:#44c2c7;}.cls-4{fill:none;stroke:#13818d;stroke-linecap:round;stroke-miterlimit:10;stroke-width:1.31px;}</style></defs><title/><circle class="cls-1" cx="75" cy="75" r="65"/><path class="cls-2" d="M93.65,38.53v0a1.74,1.74,0,0,0-1.74-1.74h-7A1.74,1.74,0,0,0,83.2,38.5H56.56a5.23,5.23,0,0,0-5.23,5.23V108a5.23,5.23,0,0,0,5.23,5.23H93.44A5.23,5.23,0,0,0,98.67,108V43.73A5.22,5.22,0,0,0,93.65,38.53Z"/><rect class="cls-1" height="55.2" rx="4.22" ry="4.22" width="37.46" x="56.27" y="46.2"/><circle class="cls-1" cx="75" cy="107.31" r="3.49"/><path class="cls-3" d="M85.46,69.52a10.41,10.41,0,1,0-20,4.15,0.34,0.34,0,0,0,0,0c1.68,4.14,9.54,14.89,9.54,14.89s7.56-10,9.54-14.89a0.25,0.25,0,0,0,0-.05A10.32,10.32,0,0,0,85.46,69.52Z"/><circle class="cls-1" cx="75.05" cy="69.35" r="6.56"/><line class="cls-4" x1="66.94" x2="83.05" y1="42.64" y2="42.64"/></svg>